<svg xmlns="http://www.w3.org/2000/svg" width="960" height="540" viewBox="0 0 960 540">
  <rect width="960" height="540" fill="#f7efe2"/>
  <circle cx="250" cy="390" r="62" fill="#2a2a2a"/>
  <circle cx="250" cy="390" r="28" fill="#c6c6c6"/>
  <circle cx="690" cy="390" r="62" fill="#2a2a2a"/>
  <circle cx="690" cy="390" r="28" fill="#c6c6c6"/>
  <path d="M210 340c40-90 120-150 230-165 66-10 132 8 205 58l55 95-55 16-40-60-100 7-92 48H210z" fill="#d63a31"/>
  <path d="M424 217c35 8 60 28 88 66l-94 8-52 28-25-22c25-42 48-67 83-80z" fill="#901e18"/>
  <path d="M602 216l80 3 63 105-64 13-60-92-36-8z" fill="#2f2f2f"/>
  <rect x="120" y="102" width="300" height="64" rx="18" fill="#173126"/>
  <text x="150" y="144" font-family="Segoe UI, Arial, sans-serif" font-size="34" font-weight="700" fill="#fff">Honda Vision</text>
</svg>
